HIERARCHY
ROOT Hips
{
	OFFSET -0.001795 -0.223333 0.028219
	CHANNELS 6 Xposition Yposition Zposition Zrotation Yrotation Xrotation 
	JOINT LeftUpLeg
	{
		OFFSET 0.069520 -0.091406 -0.006815
		CHANNELS 3 Zrotation Yrotation Xrotation
		JOINT LeftLeg
		{
			OFFSET 0.034277 -0.375199 -0.004496
			CHANNELS 3 Zrotation Yrotation Xrotation
			JOINT LeftFoot
			{
				OFFSET -0.013596 -0.397961 -0.043693
				CHANNELS 3 Zrotation Yrotation Xrotation
				JOINT LeftToe
				{
					OFFSET 0.026358 -0.055791 0.119288
					CHANNELS 3 Zrotation Yrotation Xrotation
					End Site
					{
						OFFSET 0.000000 0.000000 0.000000
					}
				}
			}
		}
	}
	JOINT RightUpLeg
	{
		OFFSET -0.067670 -0.090522 -0.004320
		CHANNELS 3 Zrotation Yrotation Xrotation
		JOINT RightLeg
		{
			OFFSET -0.038290 -0.382569 -0.008850
			CHANNELS 3 Zrotation Yrotation Xrotation
			JOINT RightFoot
			{
				OFFSET 0.015774 -0.398415 -0.042312
				CHANNELS 3 Zrotation Yrotation Xrotation
				JOINT RightToe
				{
					OFFSET -0.025372 -0.048144 0.123348
					CHANNELS 3 Zrotation Yrotation Xrotation
					End Site
					{
						OFFSET 0.000000 0.000000 0.000000
					}
				}
			}
		}
	}
	JOINT Spine
	{
		OFFSET -0.002533 0.108963 -0.026696
		CHANNELS 3 Zrotation Yrotation Xrotation
		JOINT Spine1
		{
			OFFSET 0.005487 0.135180 0.001092
			CHANNELS 3 Zrotation Yrotation Xrotation
			JOINT Spine2
			{
				OFFSET 0.001457 0.052922 0.025425
				CHANNELS 3 Zrotation Yrotation Xrotation
				JOINT Neck
				{
					OFFSET -0.002778 0.213870 -0.042857
					CHANNELS 3 Zrotation Yrotation Xrotation
					JOINT Head
					{
						OFFSET 0.005152 0.064970 0.051349
						CHANNELS 3 Zrotation Yrotation Xrotation
						End Site
						{
							OFFSET 0.000000 0.000000 0.000000
						}
					}
				}
				JOINT LeftShoulder
				{
					OFFSET 0.078845 0.121749 -0.034090
					CHANNELS 3 Zrotation Yrotation Xrotation
					JOINT LeftArm
					{
						OFFSET 0.090977 0.030469 -0.008868
						CHANNELS 3 Zrotation Yrotation Xrotation
						JOINT LeftForeArm
						{
							OFFSET 0.259612 -0.012772 -0.027456
							CHANNELS 3 Zrotation Yrotation Xrotation
							JOINT LeftHand
							{
								OFFSET 0.249234 0.008986 -0.001171
								CHANNELS 3 Zrotation Yrotation Xrotation
								End Site
								{
									OFFSET 0.000000 0.000000 0.000000
								}
							}
						}
					}
				}
				JOINT RightShoulder
				{
					OFFSET -0.081759 0.118833 -0.038615
					CHANNELS 3 Zrotation Yrotation Xrotation
					JOINT RightArm
					{
						OFFSET -0.096012 0.032551 -0.009143
						CHANNELS 3 Zrotation Yrotation Xrotation
						JOINT RightForeArm
						{
							OFFSET -0.253742 -0.013329 -0.021401
							CHANNELS 3 Zrotation Yrotation Xrotation
							JOINT RightHand
							{
								OFFSET -0.255298 0.007772 -0.005559
								CHANNELS 3 Zrotation Yrotation Xrotation
								End Site
								{
									OFFSET 0.000000 0.000000 0.000000
								}
							}
						}
					}
				}
			}
		}
	}
}
MOTION
Frames: 6
Frame Time: 0.050000
0.015408 0.948289 -0.036258 -0.761566 1.311349 7.654663 5.984240 -0.392535 -5.011979 -0.545360 0.187720 -4.511087 0.904436 6.746884 13.832380 0.000000 0.000000 0.000000 -3.784736 0.555226 -6.024711 -6.534469 0.148336 -5.486356 2.009471 -1.598706 13.898289 0.000000 0.000000 0.000000 6.353109 0.548713 -8.106431 -0.683311 0.296914 0.850162 -9.347928 5.222720 -5.600248 13.914272 -9.447085 -4.555327 0.000000 0.000000 0.000000 -17.580803 -5.606523 -1.158648 -32.471668 -13.287669 0.771667 -79.533154 -54.403558 45.722492 0.000000 0.000000 0.000000 15.822706 -3.036340 -1.621111 45.445196 6.615215 -1.381435 75.062821 54.290873 47.768023 0.000000 0.000000 0.000000 
0.014984 0.947971 -0.035395 -1.098992 1.344470 7.501487 6.323058 -0.380996 -4.825765 -0.431206 0.178536 -4.452989 0.947561 6.755719 13.607479 0.000000 0.000000 0.000000 -3.528216 0.541684 -5.788627 -6.264013 0.130221 -5.525084 2.005508 -1.570149 13.814087 0.000000 0.000000 0.000000 6.414909 0.574420 -8.325521 -0.462413 0.182321 1.179538 -9.098050 4.845684 -6.186252 14.005547 -9.436812 -4.684497 0.000000 0.000000 0.000000 -17.796029 -4.848784 -1.494000 -33.454251 -12.977296 0.732251 -76.328777 -55.285404 44.301086 0.000000 0.000000 0.000000 15.696341 -3.169380 -1.778271 46.237123 6.231830 -1.437997 74.526076 53.997217 46.862437 0.000000 0.000000 0.000000 
0.014407 0.947767 -0.034558 -1.328100 1.506966 7.552057 6.579610 -0.384184 -4.886916 -0.337740 0.170737 -4.404846 0.914656 6.686185 13.475060 0.000000 0.000000 0.000000 -3.242322 0.543373 -5.763274 -6.233260 0.128936 -5.529676 1.928254 -1.669283 13.763112 0.000000 0.000000 0.000000 6.399647 0.605483 -8.703651 -0.398603 0.157505 0.921947 -8.945365 4.773545 -6.167478 14.078226 -9.618325 -4.295785 0.000000 0.000000 0.000000 -18.158740 -4.139947 -1.892030 -34.293374 -12.437907 0.600883 -73.264315 -55.963850 42.742010 0.000000 0.000000 0.000000 16.019869 -3.738626 -2.100934 46.749261 4.935811 -1.923698 75.047842 53.012832 46.304034 0.000000 0.000000 0.000000 
0.013888 0.947680 -0.034055 -1.528694 1.630836 7.479565 6.966949 -0.376068 -4.670783 -0.548533 0.190757 -4.636713 0.857824 6.602147 13.451994 0.000000 0.000000 0.000000 -3.013854 0.535952 -5.631926 -6.163239 0.125193 -5.537683 1.879431 -1.730414 13.733903 0.000000 0.000000 0.000000 6.326112 0.620707 -8.908273 -0.431099 0.158656 1.400866 -8.612614 4.431896 -6.894433 14.197206 -9.596150 -4.489115 0.000000 0.000000 0.000000 -18.612949 -3.302256 -2.333345 -35.614138 -10.898145 0.234002 -70.891722 -55.205367 40.510573 0.000000 0.000000 0.000000 16.017342 -3.708051 -2.169333 48.080250 3.084636 -2.558885 73.778520 51.677092 43.918605 0.000000 0.000000 0.000000 
0.013527 0.947623 -0.034040 -1.611438 1.692296 7.571379 7.161556 -0.381380 -4.810949 -0.673452 0.197179 -4.590373 0.844558 6.582116 13.433258 0.000000 0.000000 0.000000 -2.820439 0.550855 -5.795100 -6.299456 0.145252 -5.409488 1.839581 -1.781845 13.697667 0.000000 0.000000 0.000000 6.358880 0.626938 -8.990376 -0.364730 0.127738 1.340991 -8.792610 4.553307 -6.780393 14.677127 -9.817380 -4.924639 0.000000 0.000000 0.000000 -19.013858 -2.850258 -2.684184 -36.754760 -8.641580 -0.391526 -67.399716 -53.916864 37.070374 0.000000 0.000000 0.000000 16.671353 -4.518454 -2.592628 49.062309 1.592564 -3.202131 70.987647 49.511666 40.147576 0.000000 0.000000 0.000000 
0.013285 0.947507 -0.034259 -1.661523 1.750645 7.547300 7.304372 -0.380343 -4.771092 -0.789378 0.206236 -4.663000 0.818604 6.542480 13.416611 0.000000 0.000000 0.000000 -2.680119 0.548999 -5.749214 -6.417390 0.147937 -5.453892 1.816236 -1.815146 13.693174 0.000000 0.000000 0.000000 6.269964 0.598484 -8.731925 -0.477948 0.186637 1.178864 -8.567914 4.533167 -6.818765 14.416774 -9.524104 -5.223157 0.000000 0.000000 0.000000 -19.752290 -2.174161 -3.157629 -37.869701 -5.780951 -1.249555 -61.403916 -50.022004 30.600492 0.000000 0.000000 0.000000 16.990406 -4.867868 -2.810960 49.974703 -0.555804 -4.091043 65.712892 46.364415 34.135576 0.000000 0.000000 0.000000 
